HIERARCHY
ROOT Hips
{
  OFFSET 83.7249 100.393 -113.496
  CHANNELS 6 Xposition Yposition Zposition Zrotation Xrotation Yrotation
  JOINT RightUpLeg
  {
    OFFSET -8.9458 -8.66707 0.101652
    CHANNELS 3 Zrotation Xrotation Yrotation
    JOINT RightLeg
    {
      OFFSET 0 -44.4227 1.3727
      CHANNELS 3 Zrotation Xrotation Yrotation
      JOINT RightFoot
      {
        OFFSET 0.253549 -42.0924 -1.46059
        CHANNELS 3 Zrotation Xrotation Yrotation
        JOINT RightToes
        {
          OFFSET 0.04 -4.41509 8.4991
          CHANNELS 3 Zrotation Xrotation Yrotation
          End Site
          {
            OFFSET -0.08 -0.137448 9.77979
          }
        }
      }
    }
  }
  JOINT Spine
  {
    OFFSET 0 11.8905 0
    CHANNELS 3 Zrotation Xrotation Yrotation
    JOINT Spine1
    {
      OFFSET 0 25.6574 0.127663
      CHANNELS 3 Zrotation Xrotation Yrotation
      JOINT HEad
      {
        OFFSET 0 8.73416 0.011341
        CHANNELS 3 Zrotation Xrotation Yrotation
        End Site
        {
          OFFSET -0.29 12.7742 2.51395
        }
      }
      JOINT LeftShoulder1
      {
        OFFSET 8.99 -0.362252 -0.22
        CHANNELS 3 Zrotation Xrotation Yrotation
        JOINT LeftArm
        {
          OFFSET 10.2827 -0.00338 0.322123
          CHANNELS 3 Zrotation Xrotation Yrotation
          JOINT LeftForeArm
          {
            OFFSET 32.7669 0.099144 -1.42434
            CHANNELS 3 Zrotation Xrotation Yrotation
            JOINT LeftHand
            {
              OFFSET 27.5643 0.085362 1.02216
              CHANNELS 3 Zrotation Xrotation Yrotation
              End Site
              {
                OFFSET 16.7443 -0.6 1.50291
              }
            }
          }
        }
      }
      JOINT RightShoulder
      {
        OFFSET -8.99 -0.362252 -0.22
        CHANNELS 3 Zrotation Xrotation Yrotation
        JOINT RightArm
        {
          OFFSET -10.2827 -0.00338 0.322123
          CHANNELS 3 Zrotation Xrotation Yrotation
          JOINT RightForeArm
          {
            OFFSET -32.8971 0.099144 -1.42434
            CHANNELS 3 Zrotation Xrotation Yrotation
            JOINT RightHand
            {
              OFFSET -27.4921 0.085362 1.02216
              CHANNELS 3 Zrotation Xrotation Yrotation
              End Site
              {
                OFFSET -16.6312 -0.6 1.50291
              }
            }
          }
        }
      }
    }
  }
  JOINT LeftUpLeg
  {
    OFFSET 8.9458 -8.66707 0.101652
    CHANNELS 3 Zrotation Xrotation Yrotation
    JOINT LeftLeg
    {
      OFFSET 0 -44.4227 1.3727
      CHANNELS 3 Zrotation Xrotation Yrotation
      JOINT LeftFoot
      {
        OFFSET -0.253549 -42.0924 -1.46059
        CHANNELS 3 Zrotation Xrotation Yrotation
        JOINT LeftToes
        {
          OFFSET -0.04 -4.41509 8.4991
          CHANNELS 3 Zrotation Xrotation Yrotation
          End Site
          {
            OFFSET 0.08 -0.047448 9.77979
          }
        }
      }
    }
  }
}
MOTION
Frames:	12
Frame Time:	0.0166667
85.3584 100.394 -131.515 -0.106537 0.00735362 1.06368 5.46422 -23.2026 -0.172299 0.0694347 29.2302 -18.3326 1.64082 -3.6443 -0.211315 0.0462048 0.000533964 0.662642 0.252163 3.92038 1.0108 5.51509 6.35016 -0.318301 -8.10403 -1.3369 -2.19247 8.44835e-016 3.18055e-015 -0 -94.0117 -6.80188 -28.7814 -26.0209 16.6668 -21.4128 0.368473 9.90896 -0.00117926 -1.31008 -0.198336 -6.22072 92.1097 -34.9937 10.7818 17.8631 14.8248 17.8827 -0.369625 9.91382 0.00119886 -4.74615 -1.43736 -0.160277 -1.62329 32.7736 2.33206 -0.645388 -5.1802 0.0293023 2.14614e-011 5.66457e-012 1.00521e-011 
85.1524 100.45 -130.135 -0.615118 0.255013 1.46886 6.05125 -22.5761 -1.51958 -0.525982 29.2922 -17.4054 1.64112 -4.5315 -0.206431 -0.486493 -0.33221 0.834743 0.805318 4.0482 1.02373 5.85952 5.94164 -0.295318 -7.85118 -1.089 -2.4167 -1.65521e-032 1.59028e-015 5.96354e-016 -94.0236 -7.21733 -27.508 -26.1441 16.534 -20.8806 0.368473 9.90896 -0.00117926 -1.12108 -0.217678 -6.41608 92.0689 -34.3047 11.3269 18.1149 14.9384 18.353 -0.369625 9.91382 0.00119886 -3.24601 -3.3045 0.486813 -2.506 36.3896 3.15239 -0.875038 -2.89235 0.0416904 3.08292 -2.06086 0.662037 
84.9469 100.458 -128.8 -1.12844 0.54861 1.90819 6.64353 -22.0977 -2.63004 -0.975721 29.4975 -16.7096 1.70887 -5.46083 -0.199218 -0.920821 -0.60841 0.974688 1.42128 4.17698 1.0205 6.15733 5.54543 -0.269459 -7.58839 -0.971937 -2.665 4.47266e-016 0 3.97569e-016 -93.9754 -7.60975 -26.3062 -26.2809 16.3879 -20.289 0.368473 9.90896 -0.00117926 -0.963017 -0.234718 -6.59017 92.0663 -33.5402 11.8918 18.3899 15.0752 18.921 -0.369625 9.91382 0.00119886 -1.81005 -5.4132 1.113 -3.16045 40.1993 3.7851 -1.21024 -0.581073 0.0667486 6.36428 -3.60225 1.29907 
84.7368 100.298 -127.6 -1.70351 0.994362 2.45411 7.22017 -22.1394 -3.0636 -0.991477 30.2237 -16.703 2.01298 -6.56953 -0.184219 -1.13537 -0.658572 1.05808 2.30489 4.32828 0.962226 6.34099 5.15488 -0.232447 -7.292 -1.23441 -2.97752 -1.09332e-015 0 -3.97569e-016 -93.7901 -7.93588 -25.296 -26.4765 16.2097 -19.5345 0.368473 9.90896 -0.00117926 -0.930857 -0.245292 -6.71797 92.2191 -32.5586 12.4798 18.7386 15.2801 19.7863 -0.369625 9.91382 0.00119886 -0.568754 -8.26519 1.94256 -2.57274 44.7455 3.20004 -2.04922 2.12994 0.145171 11.4385 -3.56725 2.05136 
84.5396 100.133 -126.446 -2.18619 1.45705 3.02633 7.66518 -22.2424 -3.26955 -0.844619 30.9521 -16.9542 2.31696 -7.61433 -0.168266 -1.11317 -0.765197 1.02925 3.09384 4.44125 0.900717 6.42551 4.83922 -0.197423 -7.0141 -1.65268 -3.33047 -1.19271e-015 0 1.19271e-015 -93.5425 -8.21104 -24.4065 -26.6537 16.0075 -18.6892 0.368473 9.90896 -0.00117926 -0.862689 -0.252778 -6.7895 92.3635 -31.4874 13.1806 19.0972 15.507 20.7421 -0.369625 9.91382 0.00119886 0.47674 -11.3215 2.22601 -1.8807 49.2383 3.11172 -2.62629 4.20538 0.206089 14.0077 -3.05321 2.38269 
84.3742 100.13 -125.265 -2.37703 1.84896 3.59769 7.81596 -22.0048 -3.53983 -0.704621 31.1445 -17.2211 2.39034 -8.31219 -0.157809 -0.698157 -1.2626 0.761825 3.37702 4.4428 0.888514 6.37023 4.61994 -0.171257 -6.78829 -2.04576 -3.7566 -4.96962e-016 -3.18055e-015 -0 -93.2439 -8.34567 -23.5851 -26.7223 15.7797 -17.7807 0.368473 9.90896 -0.00117926 -0.498641 -0.263102 -6.79063 92.1964 -30.4232 14.0207 19.4666 15.753 21.7241 -0.369625 9.91382 0.00119886 1.00543 -14.2075 0.816758 -3.32864 52.9582 6.32062 -1.9984 4.37233 0.166204 7.9815 -2.95126 1.45983 
84.2316 100.157 -124.092 -2.44551 2.1348 4.08048 7.86398 -21.6079 -3.87898 -0.637664 31.2331 -17.3468 2.38158 -8.91968 -0.148624 -0.194383 -1.8259 0.443502 3.5036 4.39124 0.884637 6.27301 4.63361 -0.164322 -6.63486 -2.5345 -4.12626 -7.95139e-016 3.18055e-015 -7.95139e-016 -93.0011 -8.61313 -22.8958 -26.768 15.5397 -16.8376 0.368473 9.90896 -0.00117926 -0.22767 -0.264445 -6.70879 92.2362 -29.3092 15.1803 19.7217 15.949 22.5004 -0.369625 9.91382 0.00119886 1.1332 -16.9384 -1.02588 -5.59628 55.9639 10.7195 -1.05613 3.71998 0.100412 0.514306 -2.81857 0.324584 
84.1119 100.113 -122.942 -2.50622 2.24014 4.34127 7.97696 -21.126 -4.46935 -0.836411 31.5405 -16.9735 2.34222 -9.59517 -0.14047 0.0322372 -2.2765 0.267977 3.70907 4.31981 0.866863 6.25561 5.07781 -0.196069 -6.60715 -3.22408 -4.26987 -4.96962e-016 -1.59028e-015 3.18055e-015 -92.9527 -9.33344 -22.4033 -26.8814 15.3076 -15.9198 0.368473 9.90896 -0.00117926 -0.458944 -0.242778 -6.51883 92.9919 -28.0846 16.9094 19.7346 16.0239 22.7578 -0.369625 9.91382 0.00119886 1.17675 -19.4556 -2.21184 -6.67521 58.3808 14.2308 -0.465253 2.91738 0.0618626 -2.22003 -2.42002 -0.103574 
84.0061 100.068 -121.797 -2.51113 2.19634 4.48915 8.07507 -20.4754 -5.06569 -1.09588 31.8591 -16.4664 2.33368 -10.3503 -0.127837 0.355424 -2.50957 0.0910971 3.92372 4.23054 0.831453 6.20791 5.79088 -0.24639 -6.62494 -3.98196 -4.34026 -7.95139e-016 0 -7.95139e-016 -92.9732 -10.2962 -22.06 -26.965 15.0658 -14.9583 0.368473 9.90896 -0.00117926 -0.87258 -0.21058 -6.24427 94.1054 -26.8341 18.984 19.5454 16.0063 22.6686 -0.369625 9.91382 0.00119886 1.10264 -21.6496 -3.18994 -7.41203 60.0366 16.8625 0.0342541 1.95209 0.033354 -3.38216 -2.03149 -0.291493 
83.8977 100.062 -120.644 -2.44497 1.96254 4.59461 8.1254 -19.5421 -5.40281 -1.21351 32.0897 -16.1564 2.48341 -11.3755 -0.0998024 1.22439 -2.10068 -0.206735 4.17899 4.13647 0.749619 6.0103 6.78471 -0.305876 -6.61522 -4.77931 -4.47202 -1.39149e-015 -3.18055e-015 1.59028e-015 -92.9705 -11.3895 -21.9223 -26.9293 14.7919 -13.8599 0.368473 9.90896 -0.00117926 -1.23238 -0.176555 -5.90733 95.4909 -25.6133 21.3968 19.0955 15.8736 22.2475 -0.369625 9.91382 0.00119886 0.956351 -23.3189 -4.04208 -7.95803 60.7799 17.5716 0.524179 1.02895 0.0156701 -4.38045 -1.78854 -0.449432 
83.8087 100.073 -119.48 -2.33583 1.68001 4.64085 8.12956 -18.5002 -5.73467 -1.34291 32.2322 -15.8041 2.64664 -12.2924 -0.0720495 2.05159 -1.82998 -0.505075 4.40669 4.0377 0.674301 5.81277 7.73623 -0.362039 -6.62218 -5.40909 -4.54944 -5.96354e-016 -3.18055e-015 -0 -93.0149 -12.6239 -21.7444 -26.8319 14.5151 -12.7592 0.368473 9.90896 -0.00117926 -1.69637 -0.138024 -5.48668 96.936 -24.4531 23.7905 18.5282 15.6871 21.6614 -0.369625 9.91382 0.00119886 0.760096 -24.6802 -4.76591 -8.07961 60.7711 17.0763 0.876784 0.165186 0.00776617 -4.30569 -1.87492 -0.427882 
83.7628 100.089 -118.289 -2.20632 1.4811 4.6552 8.0494 -17.492 -6.39849 -1.63037 32.2445 -15.1881 2.68917 -12.6222 -0.0617517 2.00259 -2.74321 -0.632484 4.52527 3.9326 0.665268 5.78564 8.24931 -0.397843 -6.69295 -5.55564 -4.50939 7.95139e-016 0 -1.59028e-015 -93.1561 -13.9571 -21.2303 -26.6908 14.2582 -11.7408 0.368473 9.90896 -0.00117926 -2.39508 -0.0915763 -4.92608 98.2006 -23.4848 25.7667 17.9657 15.4977 21.0506 -0.369625 9.91382 0.00119886 0.51025 -25.9038 -5.39785 -8.00714 60.0787 16.116 1.03136 -0.568045 0.00976252 -1.46761 -2.92557 0.0592131 
